<?xml version="1.0" encoding="UTF-8"?>
<svg width="34px" height="32px" viewBox="0 0 34 32" version="1.1" xmlns="http://www.w3.org/2000/svg" xmlns:xlink="http://www.w3.org/1999/xlink">
    <!-- Generator: Sketch 60.1 (88133) - https://sketch.com -->
    <title>Artboard</title>
    <desc>Created with Sketch.</desc>
    <g id="Artboard" stroke="none" stroke-width="1" fill="none" fill-rule="evenodd">
        <g id="アセット-2" fill="#1A1414">
            <path d="M17.29,-8.5350194e-06 C9.29377592,-0.00812715554 2.47389604,5.78869798 1.19360319,13.6817656 C-0.0866896569,21.5748331 4.55118752,29.2301606 12.14,31.75 C12.96,31.9 13.25,31.39 13.25,30.96 C13.25,30.53 13.25,29.55 13.25,28.19 C8.7,29.18 7.74,25.9999915 7.74,25.9999915 C7.4381488,25.0144255 6.79687925,24.1676662 5.93,23.61 C4.46,22.61 6.05,22.61 6.05,22.61 C7.09411435,22.7574806 8.01236501,23.3770232 8.54,24.29 C8.98687814,25.1002955 9.7380761,25.6992447 10.6275418,25.9544501 C11.5170074,26.2096554 12.4714895,26.1000996 13.28,25.65 C13.3427603,24.8273488 13.6974157,24.0541998 14.28,23.47 C10.66,23.06 6.86,21.66 6.86,15.47 C6.835144,13.8529815 7.43307732,12.2883296 8.53,11.1 C8.04145425,9.6940287 8.09855494,8.15587884 8.69,6.79 C8.69,6.79 10.06,6.35 13.17,8.46 C15.8405846,7.72676088 18.6594154,7.72676088 21.33,8.46 C24.44,6.35 25.8,6.79 25.8,6.79 C26.3996828,8.14142536 26.4710433,9.66854071 26,11.07 C27.0969227,12.2583296 27.694856,13.8229815 27.67,15.44 C27.67,21.7 23.86,23.07 20.23,23.44 C21.0175737,24.2316945 21.4225939,25.3263435 21.34,26.44 C21.34,28.62 21.34,30.38 21.34,30.91 C21.34,31.44 21.63,31.85 22.46,31.69 C29.9587005,29.1049799 34.5055437,21.4947525 33.2284169,13.6664842 C31.9512902,5.83821589 25.2214724,0.0676962605 17.29,-8.5350194e-06 Z" id="Path"></path>
        </g>
    </g>
</svg>